<?xml version="1.0" encoding="UTF-8" standalone="no"?>
<!-- Created with Inkscape (http://www.inkscape.org/) -->

<svg
   width="160"
   height="160"
   version="1.1"
   viewBox="0 0 42.333 42.333"
   xml:space="preserve"
   id="svg271"
   xmlns="http://www.w3.org/2000/svg"
   xmlns:svg="http://www.w3.org/2000/svg"><defs
     id="defs255"><clipPath
       id="clipPath1185"><path
         d="m-466.07-296.33h352.78v352.78h-352.78z"
         id="path252" /></clipPath></defs><g
     fill="#fff"
     id="g265" /><path
     d="m21.167 0.26458c-0.374 4.5713e-4 -0.74779 0.012045-1.1214 0.032556a0.84045 0.84045 0 0 0-0.74311 0.83406h-0.001034c-0.064805 1.5197-1.1044 2.8701-2.6298 3.2794-1.5262 0.40874-3.1016-0.24145-3.9176-1.5255l-0.001033 5.168e-4a0.84045 0.84045 0 0 0-1.0656-0.3483c-0.33089 0.16988-0.65758 0.34758-0.97875 0.53485-0.32549 0.18978-0.64525 0.38922-0.96015 0.59635a0.84045 0.84045 0 0 0-0.22066 1.0893l-0.0025838 0.0015503c0.69959 1.3476 0.47531 3.0321-0.63872 4.147-1.1134 1.1131-2.7954 1.3401-4.1424 0.64389l-5.167e-4 0.0010335a0.84045 0.84045 0 0 0-1.0976 0.23203c-0.20178 0.31228-0.39653 0.62947-0.58136 0.95188-0.18637 0.3251-0.36307 0.65539-0.53175 0.99012a0.84045 0.84045 0 0 0 0.35088 1.0604l-0.0020671 0.002584c1.2725 0.81942 1.9157 2.3855 1.51 3.9031-0.40705 1.5189-1.7481 2.5547-3.2613 2.6272v0.003618a0.84045 0.84045 0 0 0-0.83302 0.73691c-0.02179 0.3759-0.034264 0.75224-0.035657 1.1286-0.001378 0.3723 0.0088777 0.74424 0.027388 1.1162a0.84045 0.84045 0 0 0 0.83406 0.74879v0.003101c0.17693 8e-3 0.35317 0.026748 0.5271 0.060978l0.0062011 0.001034c0.20767 0.04206 0.41083 0.10152 0.60771 0.17983 0.011207 0.0043 0.022415 0.009602 0.03359 0.013952 0.19833 0.0802 0.39033 0.17801 0.57102 0.29249l0.0015503 0.002067c0.17816 0.11442 0.34571 0.24334 0.50074 0.38757 0.010144 0.0093 0.021471 0.018972 0.031523 0.028422 0.155 0.14595 0.29575 0.30622 0.4222 0.47749l0.0015503 0.001034c0.12389 0.17056 0.23209 0.35287 0.32401 0.5426 0.0074 0.01469 0.014691 0.030069 0.021704 0.044959 0.090917 0.19106 0.16458 0.39008 0.22014 0.59428 0.05409 0.20493 0.089153 0.41297 0.10594 0.62425 0.00129 0.01602 0.0030341 0.032009 0.0041341 0.048059 0.029569 0.42529-0.017328 0.85285-0.13901 1.2614-0.00361 0.01213-0.0082605 0.024133-0.011886 0.036173-0.12702 0.41012-0.32685 0.79302-0.59066 1.1317-0.0062097 0.0079-0.012733 0.016618-0.01912 0.024288-0.24431 0.30823-0.53991 0.57015-0.87075 0.78186l0.002067 0.0031a0.84045 0.84045 0 0 0-0.34933 1.0645c0.17068 0.33166 0.34939 0.65938 0.53743 0.98134 0.17267 0.29564 0.35297 0.5859 0.54002 0.87282 0.017437 0.02675 0.035162 0.053955 0.05271 0.080615a0.84045 0.84045 0 0 0 1.0945 0.22738l0.0015503 0.002583c1.3464-0.69358 3.0252-0.46705 4.1372 0.64389 1.107 1.1082 1.3357 2.7802 0.65009 4.1248l0.0020671 0.002067a0.84045 0.84045 0 0 0 0.22789 1.094c0.31368 0.20525 0.63187 0.40266 0.95601 0.59066 0.32265 0.18713 0.65107 0.36466 0.9834 0.53434a0.84045 0.84045 0 0 0 1.0635-0.34882l0.004134 0.00155c0.82071-1.2679 2.3837-1.9083 3.8985-1.5033 1.5152 0.4069 2.5485 1.7442 2.6246 3.2535h0.004134a0.84045 0.84045 0 0 0 0.74672 0.83457c0.37271 0.01909 0.74673 0.029302 1.1198 0.028422 0.3766-8.82e-4 0.75248-0.01396 1.1286-0.03514a0.84045 0.84045 0 0 0 0.73846-0.83251h0.003617c0.07737-1.5078 1.1096-2.8414 2.6231-3.2479 1.519-0.40629 3.0876 0.23831 3.9067 1.5126l0.002584-0.00155a0.84045 0.84045 0 0 0 1.0661 0.3483c0.33405-0.16998 0.66367-0.34778 0.98805-0.53537 0.32827-0.18983 0.65082-0.39045 0.96842-0.5979a0.84045 0.84045 0 0 0 0.21859-1.0873l0.003618-0.002584c-0.69379-1.3427-0.47263-3.0168 0.63252-4.1305 1.1135-1.105 2.7897-1.328 4.1326-0.6351l0.002067-0.003101a0.84045 0.84045 0 0 0 1.0935-0.22789c0.20413-0.31511 0.40082-0.63461 0.58756-0.96015 0.18787-0.3276 0.36589-0.66047 0.53588-0.99787a0.84045 0.84045 0 0 0-0.35037-1.0578v-0.0031c-1.271-0.81987-1.9114-2.3849-1.5059-3.9016 0.40793-1.5199 1.7508-2.5575 3.2649-2.6283l5.17e-4 -5.17e-4a0.84045 0.84045 0 0 0 0.84026-0.83974l-0.001034-5.17e-4c0.01629-0.34135 0.024221-0.68365 0.023771-1.0253-4.96e-4 -0.37501-0.011916-0.74942-0.032556-1.124a0.84045 0.84045 0 0 0-0.83406-0.74104v-0.004134c-1.5134-0.07218-2.8546-1.108-3.2618-2.6272-0.40726-1.5222 0.23771-3.0939 1.5162-3.9114a0.84045 0.84045 0 0 0 0.30799-1.1482c-0.15684-0.30333-0.3205-0.6019-0.49196-0.8971-0.18911-0.32559-0.38883-0.64617-0.59531-0.96118a0.84045 0.84045 0 0 0-1.0899-0.22169l-5.17e-4 -0.0031006c-1.3472 0.69578-3.0278 0.47054-4.1408-0.64234-1.1154-1.1162-1.3418-2.8038-0.64027-4.1517a0.84045 0.84045 0 0 0-0.23203-1.0971c-0.31226-0.20209-0.62834-0.39774-0.95085-0.58291-0.32529-0.18677-0.65564-0.36319-0.99064-0.53227a0.84045 0.84045 0 0 0-1.0588 0.35088l-0.002584-0.0015503c-0.81776 1.2793-2.3893 1.9271-3.9119 1.5193-1.5266-0.40959-2.5665-1.7617-2.6303-3.2825h-0.001034a0.84045 0.84045 0 0 0-0.74621-0.83406c-0.37239-0.019498-0.74502-0.030428-1.1178-0.029972zm0 5.0855a15.816 15.816 0 0 1 15.817 15.817 15.816 15.816 0 0 1-15.817 15.817 15.816 15.816 0 0 1-15.817-15.817 15.816 15.816 0 0 1 15.817-15.817z"
     fill="#fff"
     id="path269" /></svg>
