<?xml version="1.0" encoding="UTF-8" standalone="no"?>
<!-- Created with Inkscape (http://www.inkscape.org/) -->

<svg
   width="160"
   height="160"
   version="1.1"
   viewBox="0 0 42.333 42.333"
   xml:space="preserve"
   id="svg271"
   xmlns="http://www.w3.org/2000/svg"
   xmlns:svg="http://www.w3.org/2000/svg"><defs
     id="defs255"><clipPath
       id="clipPath1185"><path
         d="m-466.07-296.33h352.78v352.78h-352.78z"
         id="path252" /></clipPath></defs><g
     fill="#fff"
     id="g265"><path
       transform="matrix(.11843 0 0 .11626 55.261 34.804)"
       d="m-288.14-218.02-18.143 13.26c-5.4395 3.9765-9.4963 9.4182-11.793 15.57-0.39159 1.0485-0.7324 2.1173-1.0206 3.207-0.30022 1.1402-0.54301 2.2984-0.72399 3.4752-0.13264 0.84914-0.33801 1.7103-0.40431 2.5781h16.068v-2.5781h-2e-3v-8.0858c0.13511-11.394 16.279-17.488 16.279-17.488 13.912 6.3595 14.494 17.488 14.494 17.488v65.207h16.078v-0.0775h-0.016v-44.452h2e-3v-9.7911c-5e-3 -0.0791-0.0141-0.14451-0.0191-0.22221-0.0663-0.99342-0.17611-1.8729-0.28371-2.5781h-0.0274c-0.0847-0.60431-0.18553-1.2042-0.3023-1.8014-7e-3 -0.0229-9e-3 -0.0367-9e-3 -0.0367-1.6002-8.1248-6.1264-15.473-12.852-20.563z"
       clip-path="url(#clipPath1185)"
       stroke-width=".98598"
       id="path257" /><path
       d="m24.786 24.425v2.0244l-5.44e-4 2.45e-4v1.973c-0.0079 0.12586-0.02169 0.23714-0.0355 0.32576h-0.0032c-0.01 0.06999-0.02198 0.13978-0.0358 0.20947-7.92e-4 0.0019-1e-3 0.0038-1e-3 0.0038-0.18956 0.94457-0.72554 1.7991-1.5221 2.3905l-2.0519 1.5243-2.1487-1.5416c-0.64416-0.46232-1.1246-1.095-1.3966-1.8101-0.04636-0.12191-0.08675-0.24616-0.1209-0.37285-0.0355-0.13264-0.06427-0.26725-0.08566-0.4038-0.03012-0.18923-0.04637-0.3822-0.04775-0.57647-2.49e-4 -0.0094-2.49e-4 -0.01975-2.49e-4 -0.02991v-0.25605h2.49e-4v-11.722h1.9028v12.584h-2.52e-4v0.93978c0.01618 1.3247 1.9279 2.0331 1.9279 2.0331 1.6476-0.73911 1.7165-2.0331 1.7165-2.0331v-5.2631z"
       stroke-width="1.5169"
       id="path259" /><path
       transform="matrix(.11843 0 0 .11626 55.261 35.419)"
       d="m-253.05-179.93c5e-3 0.0777 0.0143 0.14311 0.0191 0.22221v9.7911h9.9353v43.326c0 4.0086-2.6487 7.4011-6.2911 8.5251-0.83079 0.25647-1.7145 0.39636-2.6303 0.39636h-47.847v10.284h53.057c10.922 0 19.775-9.1257 19.775-20.046v-37.792c0-5.6592 2.4792-11.032 6.781-14.707z"
       clip-path="url(#clipPath1185)"
       stroke-width=".98598"
       id="path261" /><path
       transform="matrix(.11843 0 0 .11626 55.261 35.419)"
       d="m-359.1-179.93c2.4839 2.1223 4.4392 4.732 5.7759 7.628 1.3349 2.896 2.051 6.0805 2.051 9.3472v90.114c-2.6215 4.8831-6.5402 7.6646-6.5402 7.6646 8.3446 1.8546 11.922 8.3494 11.922 8.3494 12.124 14.508 18.285 5.8947 18.285 5.8947-7.0485-2.8205-7.5728-12.978-7.6-15.249v-9.5901h-2e-3v-31.888h10.701v-10.011h-10.701v-52.247h14.991v5e-3h16.066v-5e-3h26.487v-10.013h-42.451z"
       clip-path="url(#clipPath1185)"
       stroke-width=".98598"
       id="path263" /></g></svg>
